<svg version="1.1" viewBox="0.0 0.0 960.0 720.0" fill="none" stroke="none" stroke-linecap="square" stroke-miterlimit="10" xmlns:xlink="http://www.w3.org/1999/xlink" xmlns="http://www.w3.org/2000/svg"><clipPath id="p.0"><path d="m0 0l960.0 0l0 720.0l-960.0 0l0 -720.0z" clip-rule="nonzero"/></clipPath><g clip-path="url(#p.0)"><path fill="#000000" fill-opacity="0.0" d="m0 0l960.0 0l0 720.0l-960.0 0z" fill-rule="evenodd"/><path fill="#000000" fill-opacity="0.0" d="m58.503937 224.58792l265.16534 0l0 130.23624l-265.16534 0z" fill-rule="evenodd"/><path fill="#9fc5e8" d="m81.61331 312.9398q-2.578125 -0.921875 -3.921875 -3.140625q-1.328125 -2.234375 -1.328125 -4.90625q0 -3.234375 1.875 -6.265625q1.890625 -3.046875 5.125 -4.1875l48.1875 -16.734375q1.65625 -0.5625 3.328125 -0.5625q3.296875 0 5.203125 2.234375q1.90625 2.21875 1.90625 5.203125q0 2.75 -1.65625 5.140625q-1.65625 2.375 -4.828125 3.46875l-31.796875 10.71875l28.59375 10.640625q2.5 0.875 3.875 2.875q1.390625 1.984375 1.390625 4.3125q0 3.34375 -2.421875 6.046875q-2.40625 2.6875 -6.09375 2.6875q-1.609375 0 -3.40625 -0.703125l-44.03125 -16.828125zm99.59503 24.875q-3.375 0 -5.953125 -2.421875q-2.5625 -2.4375 -2.5625 -6.3125q0 -2.9375 1.78125 -6.25l45.25 -84.98436q1.53125 -2.953125 3.71875 -4.5q2.1875 -1.5625 4.640625 -1.5625q3.5 0 5.890625 2.703125q2.40625 2.6875 2.40625 6.46875q0 2.984375 -1.46875 5.515625l-46.21875 86.70311q-1.296875 2.28125 -3.265625 3.46875q-1.96875 1.171875 -4.21875 1.171875zm63.159515 -8.015625q-1.65625 0.5625 -3.328125 0.5625q-3.296875 0 -5.203125 -2.21875q-1.90625 -2.234375 -1.90625 -5.21875q0 -2.75 1.65625 -5.125q1.65625 -2.390625 4.828125 -3.484375l31.796875 -10.71875l-28.59375 -10.640625q-2.5 -0.875 -3.890625 -2.859375q-1.375 -2.0 -1.375 -4.328125q0 -3.34375 2.40625 -6.03125q2.421875 -2.703125 6.109375 -2.703125q1.609375 0 3.40625 0.703125l44.03125 16.828125q2.578125 0.921875 3.90625 3.15625q1.34375 2.21875 1.34375 4.890625q0 3.234375 -1.890625 6.28125q-1.875 3.03125 -5.109375 4.171875l-48.1875 16.734375z" fill-rule="nonzero"/><path fill="#000000" fill-opacity="0.0" d="m35.816273 470.83728l265.16534 0l0 130.2362l-265.16534 0z" fill-rule="evenodd"/><path fill="#e06666" d="m58.925648 559.18915q-2.578125 -0.921875 -3.921875 -3.140625q-1.328125 -2.234375 -1.328125 -4.90625q0 -3.234375 1.875 -6.265625q1.890625 -3.046875 5.125 -4.1875l48.187504 -16.734375q1.65625 -0.5625 3.328125 -0.5625q3.296875 0 5.203125 2.234375q1.90625 2.21875 1.90625 5.203125q0 2.75 -1.65625 5.140625q-1.65625 2.375 -4.828125 3.46875l-31.796875 10.71875l28.59375 10.640625q2.5 0.875 3.875 2.875q1.390625 1.984375 1.390625 4.3125q0 3.34375 -2.421875 6.046875q-2.40625 2.6875 -6.09375 2.6875q-1.609375 0 -3.40625 -0.703125l-44.031254 -16.828125zm99.59503 24.875q-3.375 0 -5.953125 -2.421875q-2.5625 -2.4375 -2.5625 -6.3125q0 -2.9375 1.78125 -6.25l45.25 -84.984375q1.53125 -2.953125 3.71875 -4.5q2.1875 -1.5625 4.640625 -1.5625q3.5 0 5.890625 2.703125q2.40625 2.6875 2.40625 6.46875q0 2.984375 -1.46875 5.515625l-46.21875 86.703125q-1.296875 2.28125 -3.265625 3.46875q-1.96875 1.171875 -4.21875 1.171875zm63.159515 -8.015625q-1.65625 0.5625 -3.328125 0.5625q-3.296875 0 -5.203125 -2.21875q-1.90625 -2.234375 -1.90625 -5.21875q0 -2.75 1.65625 -5.125q1.65625 -2.390625 4.828125 -3.484375l31.796875 -10.71875l-28.59375 -10.640625q-2.5 -0.875 -3.890625 -2.859375q-1.375 -2.0 -1.375 -4.328125q0 -3.34375 2.40625 -6.03125q2.421875 -2.703125 6.109375 -2.703125q1.609375 0 3.40625 0.703125l44.031265 16.828125q2.578125 0.921875 3.90625 3.15625q1.34375 2.21875 1.34375 4.890625q0 3.234375 -1.890625 6.28125q-1.875 3.03125 -5.109375 4.171875l-48.187515 16.734375z" fill-rule="nonzero"/><path fill="#000000" fill-opacity="0.0" d="m543.45404 308.4252l265.1654 0l0 130.2362l-265.1654 0z" fill-rule="evenodd"/><path fill="#ffe599" d="m566.5634 396.77707q-2.578125 -0.921875 -3.921875 -3.140625q-1.328125 -2.234375 -1.328125 -4.90625q0 -3.234375 1.875 -6.265625q1.890625 -3.046875 5.125 -4.1875l48.1875 -16.734375q1.65625 -0.5625 3.328125 -0.5625q3.296875 0 5.203125 2.234375q1.90625 2.21875 1.90625 5.203125q0 2.75 -1.65625 5.140625q-1.65625 2.375 -4.828125 3.46875l-31.796875 10.71875l28.59375 10.640625q2.5 0.875 3.875 2.875q1.390625 1.984375 1.390625 4.3125q0 3.34375 -2.421875 6.046875q-2.40625 2.6875 -6.09375 2.6875q-1.609375 0 -3.40625 -0.703125l-44.03125 -16.828125zm99.59503 24.875q-3.375 0 -5.953125 -2.421875q-2.5625 -2.4375 -2.5625 -6.3125q0 -2.9375 1.78125 -6.25l45.25 -84.984375q1.53125 -2.953125 3.71875 -4.5q2.1875 -1.5625 4.640625 -1.5625q3.5 0 5.890625 2.703125q2.40625 2.6875 2.40625 6.46875q0 2.984375 -1.46875 5.515625l-46.21875 86.703125q-1.296875 2.28125 -3.265625 3.46875q-1.96875 1.171875 -4.21875 1.171875zm63.159546 -8.015625q-1.65625 0.5625 -3.328125 0.5625q-3.296875 0 -5.203125 -2.21875q-1.90625 -2.234375 -1.90625 -5.21875q0 -2.75 1.65625 -5.125q1.65625 -2.390625 4.828125 -3.484375l31.796875 -10.71875l-28.59375 -10.640625q-2.5 -0.875 -3.890625 -2.859375q-1.375 -2.0 -1.375 -4.328125q0 -3.34375 2.40625 -6.03125q2.421875 -2.703125 6.109375 -2.703125q1.609375 0 3.40625 0.703125l44.03125 16.828125q2.578125 0.921875 3.90625 3.15625q1.34375 2.21875 1.34375 4.890625q0 3.234375 -1.890625 6.28125q-1.875 3.03125 -5.109375 4.171875l-48.1875 16.734375z" fill-rule="nonzero"/><path fill="#000000" fill-opacity="0.0" d="m508.49606 545.2992l265.16537 0l0 130.23627l-265.16537 0z" fill-rule="evenodd"/><path fill="#d5a6bd" d="m531.6054 633.65106q-2.578125 -0.921875 -3.921875 -3.140625q-1.328125 -2.234375 -1.328125 -4.90625q0 -3.234375 1.875 -6.265625q1.890625 -3.046875 5.125 -4.1875l48.1875 -16.734375q1.65625 -0.5625 3.328125 -0.5625q3.296875 0 5.203125 2.234375q1.90625 2.21875 1.90625 5.203125q0 2.75 -1.65625 5.140625q-1.65625 2.375 -4.828125 3.46875l-31.796875 10.71875l28.59375 10.640625q2.5 0.875 3.875 2.875q1.390625 1.984375 1.390625 4.3125q0 3.34375 -2.421875 6.046875q-2.40625 2.6875 -6.09375 2.6875q-1.609375 0 -3.40625 -0.703125l-44.03125 -16.828125zm99.59503 24.875q-3.375 0 -5.953125 -2.421875q-2.5625 -2.4375 -2.5625 -6.3125q0 -2.9375 1.78125 -6.25l45.25 -84.984375q1.53125 -2.953125 3.71875 -4.5q2.1875 -1.5625 4.640625 -1.5625q3.5 0 5.890625 2.703125q2.40625 2.6875 2.40625 6.46875q0 2.984375 -1.46875 5.515625l-46.21875 86.703125q-1.296875 2.28125 -3.265625 3.46875q-1.96875 1.171875 -4.21875 1.171875zm63.159546 -8.015625q-1.65625 0.5625 -3.328125 0.5625q-3.296875 0 -5.203125 -2.21875q-1.90625 -2.234375 -1.90625 -5.21875q0 -2.75 1.65625 -5.125q1.65625 -2.390625 4.828125 -3.484375l31.796875 -10.71875l-28.59375 -10.640625q-2.5 -0.875 -3.890625 -2.859375q-1.375 -2.0 -1.375 -4.328125q0 -3.34375 2.40625 -6.03125q2.421875 -2.703125 6.109375 -2.703125q1.609375 0 3.40625 0.703125l44.03125 16.828125q2.578125 0.921875 3.90625 3.15625q1.34375 2.21875 1.34375 4.890625q0 3.234375 -1.890625 6.28125q-1.875 3.03125 -5.109375 4.171875l-48.1875 16.734375z" fill-rule="nonzero"/><path fill="#000000" fill-opacity="0.0" d="m498.11548 40.40945l265.16534 0l0 130.23622l-265.16534 0z" fill-rule="evenodd"/><path fill="#b6d7a8" d="m521.22485 128.76132q-2.578125 -0.921875 -3.921875 -3.140625q-1.328125 -2.234375 -1.328125 -4.90625q0 -3.234375 1.875 -6.265625q1.890625 -3.046875 5.125 -4.1875l48.1875 -16.734375q1.65625 -0.5625 3.328125 -0.5625q3.296875 0 5.203125 2.234375q1.90625 2.21875 1.90625 5.203125q0 2.75 -1.65625 5.140625q-1.65625 2.375 -4.828125 3.46875l-31.796875 10.71875l28.59375 10.640625q2.5 0.875 3.875 2.875q1.390625 1.984375 1.390625 4.3125q0 3.34375 -2.421875 6.046875q-2.40625 2.6875 -6.09375 2.6875q-1.609375 0 -3.40625 -0.703125l-44.03125 -16.828125zm99.59503 24.875q-3.375 0 -5.953125 -2.421875q-2.5625 -2.4375 -2.5625 -6.3125q0 -2.9375 1.78125 -6.25l45.25 -84.984375q1.53125 -2.953125 3.71875 -4.5q2.1875 -1.5625 4.640625 -1.5625q3.5 0 5.890625 2.703125q2.40625 2.6875 2.40625 6.46875q0 2.984375 -1.46875 5.515625l-46.21875 86.703125q-1.296875 2.28125 -3.265625 3.46875q-1.96875 1.171875 -4.21875 1.171875zm63.159546 -8.015625q-1.65625 0.5625 -3.328125 0.5625q-3.296875 0 -5.203125 -2.21875q-1.90625 -2.234375 -1.90625 -5.21875q0 -2.75 1.65625 -5.125q1.65625 -2.390625 4.828125 -3.484375l31.796875 -10.71875l-28.59375 -10.640625q-2.5 -0.875 -3.890625 -2.859375q-1.375 -2.0 -1.375 -4.328125q0 -3.34375 2.40625 -6.03125q2.421875 -2.703125 6.109375 -2.703125q1.609375 0 3.40625 0.703125l44.03125 16.828125q2.578125 0.921875 3.90625 3.15625q1.34375 2.21875 1.34375 4.890625q0 3.234375 -1.890625 6.28125q-1.875 3.03125 -5.109375 4.171875l-48.1875 16.734375z" fill-rule="nonzero"/></g></svg>